<?xml version="1.0" encoding="UTF-8"?>
<!DOCTYPE svg PUBLIC "-//W3C//DTD SVG 1.1//EN" "http://www.w3.org/Graphics/SVG/1.1/DTD/svg11.dtd">
<svg xmlns="http://www.w3.org/2000/svg" version="1.1" width="750px" height="750px" style="shape-rendering:geometricPrecision; text-rendering:geometricPrecision; image-rendering:optimizeQuality; fill-rule:evenodd; clip-rule:evenodd" xmlns:xlink="http://www.w3.org/1999/xlink">
<g><path style="opacity:1" fill="#101a1d" d="M 334.5,49.5 C 346.171,49.3335 357.838,49.5001 369.5,50C 372.494,51.7134 375.661,51.8801 379,50.5C 380.928,50.9335 382.761,51.6002 384.5,52.5C 387.58,50.9815 390.414,51.3148 393,53.5C 395.705,52.2337 398.205,52.567 400.5,54.5C 401.554,54.3201 402.554,53.9867 403.5,53.5C 405.122,55.4386 406.956,55.772 409,54.5C 410.396,56.5268 412.062,56.8602 414,55.5C 415.396,57.5268 417.062,57.8602 419,56.5C 425.059,59.1032 431.393,61.1032 438,62.5C 496.419,78.8606 546.752,108.527 589,151.5C 589.333,152.5 589.667,153.5 590,154.5C 594.746,157.913 598.746,161.913 602,166.5C 608.966,176.593 616.299,186.593 624,196.5C 624.333,197.833 624.667,199.167 625,200.5C 628.167,205.167 631.333,209.833 634.5,214.5C 640.223,227.936 646.389,240.936 653,253.5C 656.069,260.826 658.402,268.493 660,276.5C 663.707,288.335 666.707,300.668 669,313.5C 669.5,314 670,314.5 670.5,315C 669.861,318.016 669.861,320.85 670.5,323.5C 670.529,325.029 671.196,326.196 672.5,327C 671.074,329.711 671.408,332.211 673.5,334.5C 672.037,337.88 672.37,341.047 674.5,344C 673.963,345.792 673.63,347.625 673.5,349.5C 674.852,352.792 675.519,356.292 675.5,360C 674.19,368.168 674.19,376.335 675.5,384.5C 674.164,388.363 673.664,392.363 674,396.5C 683.806,408.659 692.473,421.659 700,435.5C 708.375,457.821 713.875,480.321 716.5,503C 715.531,509.875 715.531,516.875 716.5,524C 714.18,546.79 708.68,569.29 700,591.5C 694.641,601.225 689.641,610.891 685,620.5C 680.555,624.942 676.889,629.942 674,635.5C 666.605,642.567 659.438,650.067 652.5,658C 647.982,660.375 643.649,663.042 639.5,666C 638.743,667.512 637.743,668.846 636.5,670C 630.954,672.373 625.62,675.04 620.5,678C 619.953,678.925 619.287,679.758 618.5,680.5C 610.234,682.971 602.567,686.471 595.5,691C 583.806,693.694 572.639,696.86 562,700.5C 559.733,699.065 557.733,699.398 556,701.5C 555.107,700.919 554.107,700.585 553,700.5C 548.894,702.765 544.56,703.099 540,701.5C 536.573,702.406 533.073,703.073 529.5,703.5C 508.544,701.991 487.544,697.824 466.5,691C 459.43,687.323 451.93,684.49 444,682.5C 433.195,685.269 422.861,688.269 413,691.5C 412.439,690.978 411.772,690.645 411,690.5C 408.228,691.273 405.395,692.273 402.5,693.5C 401.554,693.013 400.554,692.68 399.5,692.5C 395.524,693.217 391.524,694.217 387.5,695.5C 386.014,695.103 384.514,694.77 383,694.5C 378.548,696.798 373.881,697.131 369,695.5C 358,698.167 347,698.167 336,695.5C 331.119,697.131 326.452,696.798 322,694.5C 318.745,696.098 315.745,695.765 313,693.5C 309.549,693.265 306.049,693.265 302.5,693.5C 300.878,691.561 299.044,691.228 297,692.5C 296.261,691.426 295.261,690.759 294,690.5C 291.795,690.088 289.462,690.088 287,690.5C 284.974,688.903 282.641,687.903 280,687.5C 277.795,687.088 275.462,687.088 273,687.5C 271.009,685.095 268.676,684.428 266,685.5C 258.363,681.287 250.197,678.454 241.5,677C 235.49,674.119 229.49,671.119 223.5,668C 221.833,667.667 220.167,667.333 218.5,667C 208.076,662.126 198.076,656.793 188.5,651C 183.192,646.009 177.192,642.009 170.5,639C 169.833,638 169.167,637 168.5,636C 163.038,631.795 157.372,627.795 151.5,624C 150.403,621.235 148.403,619.569 145.5,619C 144.077,615.908 141.743,613.908 138.5,613C 128.944,603.78 119.778,594.28 111,584.5C 108.794,581.701 106.794,578.701 105,575.5C 103.045,574.547 101.378,573.213 100,571.5C 97.7529,567.511 95.4196,563.511 93,559.5C 92,558.833 91,558.167 90,557.5C 85.937,549.042 81.1036,541.042 75.5,533.5C 71.0789,522.328 65.9122,511.661 60,501.5C 55.7988,491.9 52.4655,481.9 50,471.5C 45.9597,458.332 42.6264,444.665 40,430.5C 39.5,430 39,429.5 38.5,429C 39.9348,426.733 39.6015,424.733 37.5,423C 38.9817,420.408 38.6483,418.075 36.5,416C 37.8021,413.001 37.4687,410.168 35.5,407.5C 36.9621,403.461 36.6288,399.627 34.5,396C 35.9202,391.674 35.7535,387.508 34,383.5C 32.9494,371.652 33.4494,359.985 35.5,348.5C 35.2893,346.314 34.9559,344.147 34.5,342C 35.7921,337.137 36.7921,332.303 37.5,327.5C 37.4302,326.228 37.0968,325.062 36.5,324C 41.1693,299.581 48.0027,274.747 57,249.5C 58.7997,246.023 60.133,242.356 61,238.5C 65.2339,230.157 69.4005,221.823 73.5,213.5C 76.4055,208.7 79.5722,204.033 83,199.5C 83.3333,198.167 83.6667,196.833 84,195.5C 89.8693,186.95 95.8693,178.617 102,170.5C 116.773,152.06 133.273,135.226 151.5,120C 164.067,111.047 176.734,102.213 189.5,93.5C 223.207,75.8343 258.207,62.8343 294.5,54.5C 295.293,54.9312 296.127,55.2645 297,55.5C 300.316,54.6761 303.65,53.6761 307,52.5C 308.144,52.9111 309.311,53.2444 310.5,53.5C 315.677,52.4435 320.844,51.4435 326,50.5C 327.86,50.6942 329.693,51.0275 331.5,51.5C 333.038,51.5466 334.038,50.8799 334.5,49.5 Z"/></g>
<g><path style="opacity:1" fill="#467fac" d="M 338.5,156.5 C 338.167,156.5 337.833,156.5 337.5,156.5C 337.5,132.5 337.5,108.5 337.5,84.5C 332.105,84.2665 326.772,84.5998 321.5,85.5C 321.611,84.8826 321.944,84.3826 322.5,84C 327.823,83.5006 333.156,83.334 338.5,83.5C 338.5,107.833 338.5,132.167 338.5,156.5 Z"/></g>
<g><path style="opacity:1" fill="#31668f" d="M 380.5,84.5 C 376.833,84.5 373.167,84.5 369.5,84.5C 369.5,129.167 369.5,173.833 369.5,218.5C 368.501,173.67 368.168,128.67 368.5,83.5C 372.702,83.1832 376.702,83.5166 380.5,84.5 Z"/></g>
<g><path style="opacity:1" fill="#3483c2" d="M 380.5,84.5 C 389.385,87.9433 397.719,92.4433 405.5,98C 437.866,128.908 461.532,165.408 476.5,207.5C 458.852,210.379 441.185,213.212 423.5,216C 405.55,217.924 387.55,218.757 369.5,218.5C 369.5,173.833 369.5,129.167 369.5,84.5C 373.167,84.5 376.833,84.5 380.5,84.5 Z"/></g>
<g><path style="opacity:1" fill="#3483c1" d="M 263.5,94.5 C 265.355,94.272 266.188,94.9387 266,96.5C 252.715,110.409 241.382,125.742 232,142.5C 222.362,161.445 213.528,180.778 205.5,200.5C 204.667,200.833 203.833,201.167 203,201.5C 179.999,196.466 158.166,188.466 137.5,177.5C 144.982,168.184 153.316,159.684 162.5,152C 182.14,136.039 203.14,122.039 225.5,110C 238.152,104.498 250.819,99.331 263.5,94.5 Z"/></g>
<g><path style="opacity:1" fill="#3483c2" d="M 438.5,92.5 C 490.18,108.365 533.846,136.532 569.5,177C 548.319,189.393 525.652,197.393 501.5,201C 492.323,170.48 478.489,142.313 460,116.5C 452.546,108.558 445.38,100.558 438.5,92.5 Z"/></g>
<g><path style="opacity:1" fill="#326287" d="M 337.5,156.5 C 337.833,156.5 338.167,156.5 338.5,156.5C 338.5,177.167 338.5,197.833 338.5,218.5C 326.655,218.828 314.988,218.495 303.5,217.5C 314.833,217.5 326.167,217.5 337.5,217.5C 337.5,197.167 337.5,176.833 337.5,156.5 Z"/></g>
<g><path style="opacity:1" fill="#3483c2" d="M 337.5,156.5 C 337.5,176.833 337.5,197.167 337.5,217.5C 326.167,217.5 314.833,217.5 303.5,217.5C 280.678,215.835 258.012,213.001 235.5,209C 234.484,208.481 233.818,207.647 233.5,206.5C 247.844,164.946 270.844,129.113 302.5,99C 307.317,94.7597 312.317,90.7597 317.5,87C 318.745,86.2086 320.078,85.7086 321.5,85.5C 326.772,84.5998 332.105,84.2665 337.5,84.5C 337.5,108.5 337.5,132.5 337.5,156.5 Z"/></g>
<g><path style="opacity:1" fill="#3483c1" d="M 523.5,300.5 C 523.321,292.592 522.321,284.926 520.5,277.5C 517.913,261.411 514.913,245.411 511.5,229.5C 538.863,224.246 564.53,214.58 588.5,200.5C 623.84,248.126 641.84,301.792 642.5,361.5C 640.436,361.313 638.436,360.813 636.5,360C 602.85,337.952 565.85,327.119 525.5,327.5C 525.77,318.415 525.103,309.415 523.5,300.5 Z"/></g>
<g><path style="opacity:1" fill="#346992" d="M 453.5,241.5 C 449.081,242.972 444.414,243.638 439.5,243.5C 443.919,242.028 448.586,241.362 453.5,241.5 Z"/></g>
<g><path style="opacity:1" fill="#0e2234" d="M 239.5,238.5 C 252.422,240.465 265.422,242.298 278.5,244C 285.833,244.333 293.167,244.667 300.5,245C 300.167,245.333 299.833,245.667 299.5,246C 309.045,246.155 318.378,246.988 327.5,248.5C 321.833,248.5 316.167,248.5 310.5,248.5C 299.356,246.948 288.023,245.781 276.5,245C 263.888,243.608 251.555,241.441 239.5,238.5 Z"/></g>
<g><path style="opacity:1" fill="#3a7aaa" d="M 438.5,243.5 C 436.337,244.469 434.004,245.302 431.5,246C 426.467,246.171 421.467,246.671 416.5,247.5C 417.46,248.812 417.294,250.146 416,251.5C 415.5,250.5 415,249.5 414.5,248.5C 410.217,247.508 405.884,247.174 401.5,247.5C 413.645,245.744 425.979,244.41 438.5,243.5 Z"/></g>
<g><path style="opacity:1" fill="#0e1d2c" d="M 191.5,254.5 C 190.368,266.589 188.535,278.589 186,290.5C 185.066,291.858 184.232,293.192 183.5,294.5C 185.293,280.869 187.96,267.535 191.5,254.5 Z"/></g>
<g><path style="opacity:1" fill="#3483c1" d="M 191.5,254.5 C 187.96,267.535 185.293,280.869 183.5,294.5C 183.167,298.5 182.833,302.5 182.5,306.5C 180.883,311.916 180.216,317.583 180.5,323.5C 179.071,334.971 178.404,346.637 178.5,358.5C 141.337,359.498 104.004,359.832 66.5,359.5C 66.2342,312.148 78.0675,268.148 102,227.5C 107.5,219.167 113,210.833 118.5,202.5C 119.365,201.417 120.365,201.251 121.5,202C 145.314,215.301 170.647,224.467 197.5,229.5C 195.656,237.875 193.656,246.208 191.5,254.5 Z"/></g>
<g><path style="opacity:1" fill="#163653" d="M 520.5,277.5 C 522.321,284.926 523.321,292.592 523.5,300.5C 521.866,293.051 520.866,285.385 520.5,277.5 Z"/></g>
<g><path style="opacity:1" fill="#3483c2" d="M 498.5,317.5 C 498.5,321.833 498.5,326.167 498.5,330.5C 497.209,330.263 496.209,330.596 495.5,331.5C 470.736,335.561 448.069,344.561 427.5,358.5C 408.5,358.5 389.5,358.5 370.5,358.5C 370.832,322.663 370.498,286.996 369.5,251.5C 369.5,250.5 369.5,249.5 369.5,248.5C 380.17,248.245 390.836,247.912 401.5,247.5C 405.884,247.174 410.217,247.508 414.5,248.5C 415,249.5 415.5,250.5 416,251.5C 417.294,250.146 417.46,248.812 416.5,247.5C 421.467,246.671 426.467,246.171 431.5,246C 434.004,245.302 436.337,244.469 438.5,243.5C 438.833,243.5 439.167,243.5 439.5,243.5C 444.414,243.638 449.081,242.972 453.5,241.5C 464.003,239.302 474.67,237.302 485.5,235.5C 492.646,262.375 496.979,289.708 498.5,317.5 Z"/></g>
<g><path style="opacity:1" fill="#4282b4" d="M 310.5,248.5 C 316.167,248.5 321.833,248.5 327.5,248.5C 331.167,248.5 334.833,248.5 338.5,248.5C 338.5,285.5 338.5,322.5 338.5,359.5C 295.823,359.771 253.156,359.437 210.5,358.5C 210.5,358.167 210.5,357.833 210.5,357.5C 252.517,357.2 294.517,357.533 336.5,358.5C 336.5,322.167 336.5,285.833 336.5,249.5C 325.785,249.85 317.118,249.517 310.5,248.5 Z"/></g>
<g><path style="opacity:1" fill="#4d8cc1" d="M 369.5,251.5 C 370.498,286.996 370.832,322.663 370.5,358.5C 389.5,358.5 408.5,358.5 427.5,358.5C 427.5,359.167 427.167,359.5 426.5,359.5C 407.5,359.5 388.5,359.5 369.5,359.5C 369.5,323.5 369.5,287.5 369.5,251.5 Z"/></g>
<g><path style="opacity:1" fill="#14354f" d="M 182.5,306.5 C 182.679,312.404 182.012,318.071 180.5,323.5C 180.216,317.583 180.883,311.916 182.5,306.5 Z"/></g>
<g><path style="opacity:1" fill="#2e6087" d="M 208.5,312.5 C 208.556,317.731 207.889,322.731 206.5,327.5C 206.444,322.269 207.111,317.269 208.5,312.5 Z"/></g>
<g><path style="opacity:1" fill="#1c4668" d="M 498.5,317.5 C 499.486,321.97 499.819,326.637 499.5,331.5C 498.167,331.5 496.833,331.5 495.5,331.5C 496.209,330.596 497.209,330.263 498.5,330.5C 498.5,326.167 498.5,321.833 498.5,317.5 Z"/></g>
<g><path style="opacity:1" fill="#3483c2" d="M 239.5,238.5 C 251.555,241.441 263.888,243.608 276.5,245C 288.023,245.781 299.356,246.948 310.5,248.5C 317.118,249.517 325.785,249.85 336.5,249.5C 336.5,285.833 336.5,322.167 336.5,358.5C 294.517,357.533 252.517,357.2 210.5,357.5C 209.167,357.5 207.833,357.5 206.5,357.5C 206.5,349.167 206.5,340.833 206.5,332.5C 206.5,330.833 206.5,329.167 206.5,327.5C 207.889,322.731 208.556,317.731 208.5,312.5C 211.292,286.708 216.458,261.375 224,236.5C 224.561,235.978 225.228,235.645 226,235.5C 230.311,237.329 234.811,238.329 239.5,238.5 Z"/></g>
<g><path style="opacity:1" fill="#3c6c90" d="M 206.5,332.5 C 206.5,340.833 206.5,349.167 206.5,357.5C 207.833,357.5 209.167,357.5 210.5,357.5C 210.5,357.833 210.5,358.167 210.5,358.5C 208.833,358.5 207.167,358.5 205.5,358.5C 205.174,349.651 205.507,340.984 206.5,332.5 Z"/></g>
<g><path style="opacity:1" fill="#254d6d" d="M 180.5,323.5 C 180.527,335.359 179.86,347.026 178.5,358.5C 178.404,346.637 179.071,334.971 180.5,323.5 Z"/></g>
<g><path style="opacity:1" fill="#11324f" d="M 369.5,248.5 C 369.5,249.5 369.5,250.5 369.5,251.5C 369.5,287.5 369.5,323.5 369.5,359.5C 388.5,359.5 407.5,359.5 426.5,359.5C 407.341,360.497 388.007,360.83 368.5,360.5C 368.168,322.996 368.502,285.663 369.5,248.5 Z"/></g>
<g><path style="opacity:1" fill="#010c18" d="M 338.5,495.5 C 339.16,459.151 338.494,423.151 336.5,387.5C 293.002,386.667 249.335,386.167 205.5,386C 250.559,385.016 295.559,385.349 340.5,387C 339.836,423.264 339.17,459.431 338.5,495.5 Z"/></g>
<g><path style="opacity:1" fill="#255174" d="M 87.5,387.5 C 80.8333,387.5 74.1667,387.5 67.5,387.5C 67.5,391.167 67.5,394.833 67.5,398.5C 66.5166,394.702 66.1832,390.702 66.5,386.5C 73.6866,386.175 80.6866,386.509 87.5,387.5 Z"/></g>
<g><path style="opacity:1" fill="#3784c1" d="M 389.5,389.5 C 382.18,398.133 375.847,407.466 370.5,417.5C 369.506,408.014 369.173,398.348 369.5,388.5C 376.354,388.176 383.021,388.509 389.5,389.5 Z"/></g>
<g><path style="opacity:1" fill="#3482c1" d="M 336.5,387.5 C 338.494,423.151 339.16,459.151 338.5,495.5C 338.167,495.5 337.833,495.5 337.5,495.5C 324.829,495.333 312.162,495.5 299.5,496C 296.964,496.186 294.631,496.686 292.5,497.5C 283.124,497.785 273.79,498.618 264.5,500C 250.086,502.183 235.753,504.683 221.5,507.5C 210.513,468.289 205.513,428.289 206.5,387.5C 249.833,387.5 293.167,387.5 336.5,387.5 Z"/></g>
<g><path style="opacity:1" fill="#204968" d="M 389.5,389.5 C 383.021,388.509 376.354,388.176 369.5,388.5C 369.173,398.348 369.506,408.014 370.5,417.5C 370.217,418.289 369.717,418.956 369,419.5C 368.5,408.839 368.333,398.172 368.5,387.5C 375.863,387.169 383.197,387.503 390.5,388.5C 390.376,389.107 390.043,389.44 389.5,389.5 Z"/></g>
<g><path style="opacity:1" fill="#3f81b5" d="M 87.5,387.5 C 117.833,387.5 148.167,387.5 178.5,387.5C 179.038,408.217 180.372,428.883 182.5,449.5C 181.778,449.082 181.278,448.416 181,447.5C 180.096,437.796 178.93,428.13 177.5,418.5C 176.914,418.709 176.414,419.043 176,419.5C 175.051,415.622 173.885,415.622 172.5,419.5C 171.353,417.235 171.186,414.902 172,412.5C 176.707,411.519 177.207,412.352 173.5,415C 174.766,415.309 175.933,415.809 177,416.5C 177.402,407.16 177.235,397.827 176.5,388.5C 140.5,388.5 104.5,388.5 68.5,388.5C 68.5,394.833 68.5,401.167 68.5,407.5C 67.5233,404.713 67.19,401.713 67.5,398.5C 67.5,394.833 67.5,391.167 67.5,387.5C 74.1667,387.5 80.8333,387.5 87.5,387.5 Z"/></g>
<g><path style="opacity:1" fill="#33945a" d="M 375.5,499.5 C 379.026,487.062 382.026,474.396 384.5,461.5C 403.537,411.45 438.871,378.95 490.5,364C 550.877,351.545 602.71,367.045 646,410.5C 688.357,461.993 696.691,518.66 671,580.5C 645.426,633.052 603.592,663.219 545.5,671C 485.578,674.585 437.744,652.418 402,604.5C 380.754,572.516 371.921,537.516 375.5,499.5 Z"/></g>
<g><path style="opacity:1" fill="#e3e2de" d="M 632.5,465.5 C 622.823,475.845 613.49,486.512 604.5,497.5C 575.033,529.137 545.699,560.97 516.5,593C 507.331,598.18 498.664,597.513 490.5,591C 476.468,577.299 462.134,563.966 447.5,551C 440.968,544.802 434.801,538.302 429,531.5C 423.649,518.819 427.149,509.319 439.5,503C 445.064,501.99 450.398,502.657 455.5,505C 461.059,510.066 466.725,514.9 472.5,519.5C 481.661,529.495 491.328,538.995 501.5,548C 504.345,548.669 506.012,547.503 506.5,544.5C 534.783,514.619 562.616,484.286 590,453.5C 594.865,448.3 600.032,443.467 605.5,439C 619.282,434.139 628.782,438.639 634,452.5C 634.731,456.984 634.231,461.318 632.5,465.5 Z"/></g>
<g><path style="opacity:1" fill="#3483c2" d="M 182.5,449.5 C 186.671,471.516 191.171,493.516 196,515.5C 170.061,521.638 145.727,531.638 123,545.5C 116.246,537.403 110.246,528.736 105,519.5C 90.2766,493.003 79.2766,465.003 72,435.5C 70.1305,426.247 68.9638,416.914 68.5,407.5C 68.5,401.167 68.5,394.833 68.5,388.5C 104.5,388.5 140.5,388.5 176.5,388.5C 177.235,397.827 177.402,407.16 177,416.5C 175.933,415.809 174.766,415.309 173.5,415C 177.207,412.352 176.707,411.519 172,412.5C 171.186,414.902 171.353,417.235 172.5,419.5C 173.885,415.622 175.051,415.622 176,419.5C 176.414,419.043 176.914,418.709 177.5,418.5C 178.93,428.13 180.096,437.796 181,447.5C 181.278,448.416 181.778,449.082 182.5,449.5 Z"/></g>
<g><path style="opacity:1" fill="#3a835b" d="M 384.5,461.5 C 382.026,474.396 379.026,487.062 375.5,499.5C 375.506,494.785 376.006,490.118 377,485.5C 378.822,477.155 381.322,469.155 384.5,461.5 Z"/></g>
<g><path style="opacity:1" fill="#3c8659" d="M 632.5,465.5 C 632.046,468.14 630.879,470.473 629,472.5C 621.225,481.439 613.058,489.773 604.5,497.5C 613.49,486.512 622.823,475.845 632.5,465.5 Z"/></g>
<g><path style="opacity:1" fill="#265173" d="M 337.5,495.5 C 322.664,496.355 307.664,497.022 292.5,497.5C 294.631,496.686 296.964,496.186 299.5,496C 312.162,495.5 324.829,495.333 337.5,495.5 Z"/></g>
<g><path style="opacity:1" fill="#3d8559" d="M 472.5,519.5 C 483.076,528.237 493.243,537.57 503,547.5C 503.617,546.551 503.451,545.718 502.5,545C 503.793,544.51 505.127,544.343 506.5,544.5C 506.012,547.503 504.345,548.669 501.5,548C 491.328,538.995 481.661,529.495 472.5,519.5 Z"/></g>
<g><path style="opacity:1" fill="#3483c2" d="M 322.5,525.5 C 327.5,525.5 332.5,525.5 337.5,525.5C 337.5,570.5 337.5,615.5 337.5,660.5C 333.5,660.5 329.5,660.5 325.5,660.5C 317.2,656.344 309.534,651.178 302.5,645C 270.462,614.098 247.129,577.598 232.5,535.5C 244.965,532.266 257.632,530.1 270.5,529C 279.578,528.494 288.578,527.494 297.5,526C 305.827,525.5 314.16,525.334 322.5,525.5 Z"/></g>
<g><path style="opacity:1" fill="#3483c1" d="M 200.5,543.5 C 202.467,543.261 204.301,543.594 206,544.5C 219.913,584.52 241.08,620.02 269.5,651C 218.16,637.25 174.993,610.417 140,570.5C 139.312,569.668 139.479,569.002 140.5,568.5C 159.801,558.186 179.801,549.853 200.5,543.5 Z"/></g>
<g><path style="opacity:1" fill="#2f5d82" d="M 322.5,525.5 C 327.64,524.512 332.974,524.179 338.5,524.5C 338.5,570.167 338.5,615.833 338.5,661.5C 333.968,661.818 329.634,661.485 325.5,660.5C 329.5,660.5 333.5,660.5 337.5,660.5C 337.5,615.5 337.5,570.5 337.5,525.5C 332.5,525.5 327.5,525.5 322.5,525.5 Z"/></g>
<g><path style="opacity:1" fill="#235276" d="M 370.5,612.5 C 369.505,625.323 369.171,638.323 369.5,651.5C 368.175,638.327 368.175,624.994 369.5,611.5C 370.107,611.624 370.44,611.957 370.5,612.5 Z"/></g>
<g><path style="opacity:1" fill="#3483c0" d="M 370.5,612.5 C 379.28,626.958 389.613,640.291 401.5,652.5C 391.511,657.832 380.844,660.498 369.5,660.5C 369.5,657.5 369.5,654.5 369.5,651.5C 369.171,638.323 369.505,625.323 370.5,612.5 Z"/></g>
</svg>
